Coordinates
version=1
nRows=4
nColumns=107
inDegrees=yes

Units are S.I. units (second, meters, Newtons, ...)
If the header above contains a line with 'inDegrees', this indicates whether rotational values are in degrees (yes) or radians (no).

endheader
time	sternoclavicular_r2	sternoclavicular_r3	unrotscap_r3	unrotscap_r2	acromioclavicular_r2	acromioclavicular_r3	acromioclavicular_r1	unrothum_r1	unrothum_r3	unrothum_r2	elv_angle	shoulder_elv	shoulder1_r2	shoulder_rot	elbow_flexion	pro_sup	deviation	flexion	proximal_distal_r1	proximal_distal_r3	cmc_flexion	cmc_abduction	mp_flexion	ip_flexion	mcp2_flexion	mcp2_abduction	pm2_flexion	md2_flexion	mcp3_flexion	mcp3_abduction	pm3_flexion	md3_flexion	mcp4_flexion	mcp4_abduction	pm4_flexion	md4_flexion	mcp5_flexion	mcp5_abduction	pm5_flexion	md5_flexion	bicpt_tx	bicpt_ty	bicpt_tz	bicpt2_tx	bicpt2_ty	bicpt2_tz	ptpt_tx	ptpt_ty	ptpt_tz	FCUpt_tx	FCUpt_ty	FCUpt_tz	EDCpt_tx	EDCpt_ty	EDCpt_tz	APLpt_tx	APLpt_ty	APLpt_tz	FPLpt_tx	FPLpt_ty	FPLpt_tz	FPLpt2_tx	FPLpt2_ty	FPLpt2_tz	PEC1pt2_tx	PEC1pt2_ty	PEC1pt2_tz	PEC1pt3_tx	PEC1pt3_ty	PEC1pt3_tz	PEC2pt2_tx	PEC2pt2_ty	PEC2pt2_tz	PEC2pt3_tx	PEC2pt3_ty	PEC2pt3_tz	PEC3pt2_tx	PEC3pt2_ty	PEC3pt2_tz	PEC3pt3_tx	PEC3pt3_ty	PEC3pt3_tz	DELT2pt2a_tx	DELT2pt2a_ty	DELT2pt2a_tz	DELT2pt2_tx	DELT2pt2_ty	DELT2pt2_tz	LAT1pt2_tx	LAT1pt2_ty	LAT1pt2_tz	LAT1pt3_tx	LAT1pt3_ty	LAT1pt3_tz	LAT2pt2_tx	LAT2pt2_ty	LAT2pt2_tz	LAT2pt3_tx	LAT2pt3_ty	LAT2pt3_tz	LAT3pt2_tx	LAT3pt2_ty	LAT3pt2_tz	LAT3pt3_tx	LAT3pt3_ty	LAT3pt3_tz
      0.00000000	     -0.32133469	      0.13610221	     -0.13610221	      0.32133469	     -0.06506374	      0.52582225	      0.23635348	     -0.23635348	     -0.52582225	      0.06506374	     98.60447664	     76.07884435	     -1.72097277	    -20.57455018	     28.83706113	     13.17513522	     -0.01183803	     -0.79959219	     -0.01617985	     -0.39979609	      4.54478778	      2.66791150	    -34.79488980	    -32.39077021	     -8.80402563	      7.36411466	     13.93622096	    -28.36856585	     42.81281241	     11.08613308	     78.67514977	     61.52628451	     30.87558611	     -6.29953643	     86.05349222	     33.68108593	    -31.40772385	     -9.94443797	     -9.34123041	      5.01919197	      0.00085384	     -0.03090517	     -0.00483238	      0.01570122	     -0.01803373	     -0.00982919	      0.00657651	     -0.06552948	     -0.00111133	      0.00519059	     -0.18395093	      0.00007495	     -0.00158101	      0.00040008	      0.00014401	      0.00028270	      0.00011308	      0.00056540	      0.00036185	      0.00108556	      0.00061063	      0.00004106	     -0.00010216	     -0.00012259	      0.00249370	      0.00874907	      0.00608631	     -0.00815735	      0.01969598	     -0.01868160	      0.00249370	      0.00874907	      0.00608631	      0.00054946	      0.01825894	     -0.00959440	      0.00394460	      0.00486525	      0.01595948	      0.00000000	      0.00774052	      0.00000000	     -0.00714296	     -0.03300979	     -0.00638219	      0.01410568	     -0.00044965	     -0.00350013	     -0.00088759	      0.01487765	     -0.00608631	      0.00245143	      0.02147116	     -0.01775175	     -0.00595951	      0.01289115	     -0.00545232	     -0.01242622	      0.02721934	     -0.03047383	     -0.02333087	      0.01441273	     -0.00731203	     -0.01546938	      0.03144595	     -0.03808172
      0.03333333	     -0.32145645	      0.13615378	     -0.13615378	      0.32145645	     -0.06508839	      0.52602149	      0.23644304	     -0.23644304	     -0.52602149	      0.06508839	     98.66058467	     76.10767219	     -1.72195204	    -20.62105684	     28.82195921	     13.14635191	     -0.01715636	     -0.80045804	     -0.02352450	     -0.40022902	      3.76189263	      3.00313077	    -34.79956843	    -32.24297391	    -10.08821474	      7.40231004	     13.50984868	    -28.45581352	     43.32686579	     11.17386237	     78.67955907	     61.42371331	     31.36580649	     -5.96575193	     86.11922341	     33.66255451	    -30.72165858	    -10.31078006	     -9.05856754	      5.06033808	      0.00085334	     -0.03090344	     -0.00483210	      0.01569937	     -0.01802963	     -0.00983116	      0.00657863	     -0.06552810	     -0.00110901	      0.00518793	     -0.18395130	      0.00007574	     -0.00157756	      0.00039915	      0.00014379	      0.00028240	      0.00011296	      0.00056480	      0.00036147	      0.00108441	      0.00060998	      0.00004235	     -0.00008619	     -0.00010342	      0.00249464	      0.00875239	      0.00608862	     -0.00816044	      0.01970345	     -0.01868868	      0.00249464	      0.00875239	      0.00608862	      0.00054967	      0.01826586	     -0.00959803	      0.00394569	      0.00486709	      0.01596215	      0.00000000	      0.00774643	      0.00000000	     -0.00714567	     -0.03302230	     -0.00638710	      0.01413206	     -0.00045109	     -0.00351681	     -0.00088792	      0.01488329	     -0.00608862	      0.00245236	      0.02147929	     -0.01775847	     -0.00596177	      0.01289603	     -0.00545439	     -0.01243093	      0.02722966	     -0.03048538	     -0.02333971	      0.01441819	     -0.00731480	     -0.01547524	      0.03145786	     -0.03809615
      0.06666667	     -0.32127177	      0.13607556	     -0.13607556	      0.32127177	     -0.06505100	      0.52571929	      0.23630720	     -0.23630720	     -0.52571929	      0.06505100	     98.82408717	     76.06394806	     -1.72480570	    -20.98199669	     28.61230084	     13.21129619	     -0.03682641	     -0.84260671	     -0.05108836	     -0.42130336	      2.80445509	      3.93393533	    -33.87461546	    -30.17100774	    -11.30246352	      7.30620012	     14.47215294	    -26.84354974	     44.57015795	     11.25557849	     78.20741899	     59.86960554	     32.93735107	     -5.70878770	     85.03000232	     33.90356456	    -29.71519337	    -11.09134518	     -9.09678253	      4.98726685	      0.00084641	     -0.03087941	     -0.00482823	      0.01570348	     -0.01797267	     -0.00982667	      0.00657383	     -0.06553120	     -0.00111424	      0.00519393	     -0.18395045	      0.00007397	     -0.00158535	      0.00040125	      0.00014427	      0.00026753	      0.00010701	      0.00053506	      0.00034244	      0.00102731	      0.00057786	      0.00004143	     -0.00006575	     -0.00007890	      0.00249321	      0.00874736	      0.00608512	     -0.00815575	      0.01969213	     -0.01867794	      0.00249321	      0.00874736	      0.00608512	      0.00054935	      0.01825536	     -0.00959252	      0.00394404	      0.00486430	      0.01595809	      0.00000000	      0.00773747	      0.00000000	     -0.00714157	     -0.03300333	     -0.00637966	      0.01433647	     -0.00046229	     -0.00364663	     -0.00088741	      0.01487474	     -0.00608512	      0.00245095	      0.02146695	     -0.01774827	     -0.00595835	      0.01288862	     -0.00545125	     -0.01242379	      0.02721401	     -0.03046786	     -0.02332630	      0.01440990	     -0.00731060	     -0.01546635	      0.03143979	     -0.03807426
      0.10000000	     -0.32108831	      0.13599785	     -0.13599785	      0.32108831	     -0.06501385	      0.52541907	      0.23617226	     -0.23617226	     -0.52541907	      0.06501385	     98.82242335	     76.02051079	     -1.72477666	    -21.09411574	     28.75408064	     13.09706444	     -0.03708983	     -0.84305423	     -0.05146209	     -0.42152711	      2.68828760	      3.94846053	    -33.90125771	    -30.17072355	    -11.56880256	      7.35765219	     14.36637175	    -26.87272609	     44.61243156	     11.26869096	     78.22385881	     59.86734283	     32.98242303	     -5.67079064	     85.03331295	     33.90558167	    -29.57074753	    -11.17888718	     -9.04517661	      5.00211088	      0.00085110	     -0.03089566	     -0.00483084	      0.01569625	     -0.01801119	     -0.00983457	      0.00658227	     -0.06552575	     -0.00110504	      0.00518338	     -0.18395195	      0.00007709	     -0.00157164	      0.00039755	      0.00014342	      0.00026735	      0.00010694	      0.00053470	      0.00034221	      0.00102663	      0.00057748	      0.00004097	     -0.00006319	     -0.00007583	      0.00249179	      0.00874237	      0.00608165	     -0.00815109	      0.01968088	     -0.01866727	      0.00249179	      0.00874237	      0.00608165	      0.00054904	      0.01824494	     -0.00958704	      0.00394239	      0.00486152	      0.01595406	      0.00000000	      0.00772857	      0.00000000	     -0.00713749	     -0.03298448	     -0.00637227	      0.01439963	     -0.00046578	     -0.00368736	     -0.00088691	      0.01486625	     -0.00608165	      0.00244955	      0.02145470	     -0.01773813	     -0.00595495	      0.01288126	     -0.00544814	     -0.01241669	      0.02719847	     -0.03045046	     -0.02331298	      0.01440168	     -0.00730642	     -0.01545752	      0.03142184	     -0.03805252
